<svg xmlns="http://www.w3.org/2000/svg" aria-hidden="true" style="position:absolute;width:0;height:0;overflow:hidden">
  <defs>
    <symbol id="icon-calander" viewBox="0 0 32 32">
      <path d="M7 0a.997.997 0 0 1 1 1v1h16V1a.997.997 0 0 1 1-1 .997.997 0 0 1 1 1v1h2a4.003 4.003 0 0 1 4 4v22a4.003 4.003 0 0 1-4 4H4a4.003 4.003 0 0 1-4-4V6a4.003 4.003 0 0 1 4-4h2V1a.997.997 0 0 1 1-1M4 4a2 2 0 0 0-2 2v22a2 2 0 0 0 2 2h24a2 2 0 0 0 2-2V6a2 2 0 0 0-2-2z"/>
      <path d="M5 8a.997.997 0 0 1 1-1h20a.997.997 0 0 1 1 1v2a.997.997 0 0 1-1 1H6a.997.997 0 0 1-1-1zm17 7a.997.997 0 0 1 1-1h2a.997.997 0 0 1 1 1v2a.997.997 0 0 1-1 1h-2a.997.997 0 0 1-1-1zm-6 0a.997.997 0 0 1 1-1h2a.997.997 0 0 1 1 1v2a.997.997 0 0 1-1 1h-2a.997.997 0 0 1-1-1zM6 21a.997.997 0 0 1 1-1h2a.997.997 0 0 1 1 1v2a.997.997 0 0 1-1 1H7a.997.997 0 0 1-1-1zm6 0a.997.997 0 0 1 1-1h2a.997.997 0 0 1 1 1v2a.997.997 0 0 1-1 1h-2a.997.997 0 0 1-1-1z"/>
    </symbol>
    <symbol id="icon-car" viewBox="0 0 43 32">
      <path d="M10.664 18.667a2.668 2.668 0 1 1-5.336 0 2.668 2.668 0 0 1 5.336 0m26.667 0a2.668 2.668 0 1 1-5.336 0 2.668 2.668 0 0 1 5.336 0M15.997 16a2.668 2.668 0 0 0 0 5.334h10.667a2.668 2.668 0 0 0 0-5.334zm-3.034-9.931-2.549 5.104a1.37 1.37 0 0 0 .099 1.358 1.35 1.35 0 0 0 1.226.591c2.427-.195 6.267-.453 9.592-.453s7.168.259 9.592.453a1.36 1.36 0 0 0 1.326-1.949L29.7 6.072a1.34 1.34 0 0 0-1.192-.739H14.156a1.33 1.33 0 0 0-1.192.736z"/>
      <path d="M6.717 4.04A6.67 6.67 0 0 1 12.85 0h16.965a6.67 6.67 0 0 1 6.128 4.04l2.112 4.928c.2.467.56.851 1.013 1.077a4.82 4.82 0 0 1 2.573 3.365l.893 4.477q.134.645.131 1.307v1.101a6.62 6.62 0 0 1-2.667 5.325v5.045a1.331 1.331 0 0 1-1.333 1.333h-5.333a1.331 1.331 0 0 1-1.333-1.333v-3.568c-3.445.128-7.32.235-10.667.235s-7.221-.107-10.667-.235v3.568a1.33 1.33 0 0 1-1.334 1.333H3.998a1.337 1.337 0 0 1-1.334-1.333V25.62a6.63 6.63 0 0 1-2.667-5.325v-1.101a6.6 6.6 0 0 1 .131-1.307l.893-4.48a4.82 4.82 0 0 1 2.571-3.363 2.13 2.13 0 0 0 1.016-1.077L6.72 4.039h-.005zm6.134-1.373a4 4 0 0 0-3.677 2.426l-2.112 4.925a4.8 4.8 0 0 1-2.275 2.411 2.13 2.13 0 0 0-1.147 1.504l-.896 4.477a4 4 0 0 0-.08.784v1.101c0 2.123 1.653 3.861 3.755 3.957 4.147.187 10.096.413 14.912.413s10.765-.224 14.912-.413a3.95 3.95 0 0 0 3.754-3.958v-1.101q0-.394-.08-.784l-.893-4.48a2.12 2.12 0 0 0-1.147-1.501 4.8 4.8 0 0 1-2.275-2.411L33.49 5.089a4 4 0 0 0-3.68-2.424H12.85z"/>
    </symbol>
    <symbol id="icon-gas-station" viewBox="0 0 32 32">
      <path d="M6 5a.997.997 0 0 1 1-1h10a.997.997 0 0 1 1 1v10a.997.997 0 0 1-1 1H7a.997.997 0 0 1-1-1z"/>
      <path d="M2 4a4.003 4.003 0 0 1 4-4h12a4.003 4.003 0 0 1 4 4v16a4.003 4.003 0 0 1 4 4v1a.997.997 0 0 0 1 1 .997.997 0 0 0 1-1v-9h-1a.997.997 0 0 1-1-1V8.75a.997.997 0 0 1 1-1h2.99c-.022-.952-.106-1.788-.402-2.444a1.94 1.94 0 0 0-.788-.916C28.432 4.17 27.872 4 27 4a.997.997 0 0 1-1-1 .997.997 0 0 1 1-1q1.692-.004 2.824.672c.766.456 1.268 1.102 1.588 1.814.59 1.31.588 2.93.588 4.162v6.35a.99.99 0 0 1-.293.708 1 1 0 0 1-.708.293h-1v9a3.004 3.004 0 0 1-3 3 3.004 3.004 0 0 1-3-3v-1a2 2 0 0 0-2-2v8h1a.997.997 0 0 1 1 1 .997.997 0 0 1-1 1h-22a.997.997 0 0 1-1-1 .997.997 0 0 1 1-1h1zm18 0a2 2 0 0 0-2-2H6a2 2 0 0 0-2 2v26h16z"/>
    </symbol>
    <symbol id="icon-gear" viewBox="0 0 32 32">
      <path d="M15.999 9.507a6.49 6.49 0 1 0 6.492 6.49 6.5 6.5 0 0 0-1.901-4.591 6.5 6.5 0 0 0-4.591-1.901zm-4.492 6.492a4.49 4.49 0 0 1 4.492-4.492 4.49 4.49 0 0 1 4.492 4.492 4.49 4.49 0 0 1-4.492 4.492 4.49 4.49 0 0 1-4.492-4.492"/>
      <path d="M19.591 2.685c-1.054-3.58-6.13-3.58-7.184 0l-.188.638a1.75 1.75 0 0 1-1.006 1.12 1.76 1.76 0 0 1-1.504-.079l-.584-.32c-3.28-1.784-6.866 1.804-5.08 5.082l.318.584a1.746 1.746 0 0 1-1.041 2.51l-.638.188c-3.58 1.054-3.58 6.13 0 7.184l.638.188a1.75 1.75 0 0 1 1.12 1.006 1.76 1.76 0 0 1-.079 1.504l-.32.584c-1.784 3.28 1.802 6.868 5.082 5.08l.584-.318a1.746 1.746 0 0 1 2.51 1.04l.188.638c1.054 3.58 6.13 3.58 7.184 0l.188-.638a1.75 1.75 0 0 1 1.006-1.12 1.74 1.74 0 0 1 1.504.08l.584.32c3.28 1.786 6.868-1.804 5.08-5.082l-.318-.584a1.746 1.746 0 0 1 1.04-2.51l.638-.188c3.58-1.054 3.58-6.13 0-7.184l-.638-.188a1.75 1.75 0 0 1-1.12-1.006 1.74 1.74 0 0 1 .08-1.504l.32-.584c1.786-3.28-1.804-6.866-5.082-5.08l-.584.318a1.746 1.746 0 0 1-2.51-1.041zm-5.266.566c.492-1.67 2.856-1.67 3.348 0l.188.638a3.748 3.748 0 0 0 5.385 2.23l.582-.32c1.528-.83 3.2.84 2.368 2.37l-.318.584a3.74 3.74 0 0 0-.17 3.225 3.75 3.75 0 0 0 2.403 2.159l.636.188c1.67.492 1.67 2.856 0 3.348l-.638.188a3.748 3.748 0 0 0-2.23 5.385l.32.582c.83 1.528-.84 3.2-2.37 2.368l-.582-.318a3.76 3.76 0 0 0-3.227-.171 3.746 3.746 0 0 0-2.159 2.403l-.188.636c-.492 1.67-2.856 1.67-3.348 0l-.188-.638a3.74 3.74 0 0 0-2.16-2.401 3.75 3.75 0 0 0-3.225.171l-.584.32c-1.528.83-3.2-.84-2.368-2.37l.318-.582c.268-.491.423-1.036.452-1.594s-.066-1.116-.279-1.633a3.75 3.75 0 0 0-2.404-2.161l-.638-.188c-1.67-.492-1.67-2.856 0-3.348l.638-.188a3.742 3.742 0 0 0 2.229-5.382l-.32-.584c-.83-1.528.84-3.2 2.37-2.368l.584.318a3.76 3.76 0 0 0 3.225.171 3.75 3.75 0 0 0 2.16-2.401l.188-.638z"/>
    </symbol>
    <symbol id="icon-check" viewBox="0 0 32 32">
      <path d="M16 30A14.002 14.002 0 0 1 2 16a13.998 13.998 0 1 1 23.899 9.899A14 14 0 0 1 16 30m0 2a15.997 15.997 0 0 0 16-16A15.997 15.997 0 0 0 16 0 15.997 15.997 0 0 0 0 16a15.997 15.997 0 0 0 16 16"/>
      <path d="m21.94 9.94-.04.044-6.946 8.85-4.186-4.188a1.497 1.497 0 0 0-2.083.037 1.5 1.5 0 0 0-.037 2.083l5.292 5.294q.216.215.499.33c.283.115.387.112.588.108a1.5 1.5 0 0 0 1.071-.478l7.984-9.98a1.502 1.502 0 0 0-1.09-2.535 1.5 1.5 0 0 0-1.052.435"/>
    </symbol>
    <symbol id="icon-chevron-down" viewBox="0 0 59 32">
      <path d="M.671.671a2.283 2.283 0 0 1 3.236 0l25.81 25.815L55.527.671a2.29 2.29 0 0 1 3.236 0 2.3 2.3 0 0 1 .67 1.618 2.3 2.3 0 0 1-.67 1.618L31.334 31.336a2.283 2.283 0 0 1-3.236 0L.669 3.907a2.283 2.283 0 0 1 0-3.236z"/>
    </symbol>
    <symbol id="icon-chevron-up" viewBox="0 0 59 32">
      <path d="M28.099.671a2.283 2.283 0 0 1 3.236 0L58.763 28.1a2.289 2.289 0 1 1-3.236 3.236L29.717 5.521 3.907 31.336A2.288 2.288 0 0 1 .671 28.1L28.1.671z"/>
    </symbol>
    <symbol id="icon-heart" viewBox="-2 -2 38 36">
      <path  d="M17.066 2.803c9.468-9.732 33.139 7.298 0 29.197-33.139-21.897-9.468-38.929 0-29.197" stroke-width='2'/>
    </symbol>
    <symbol id="icon-location" viewBox="0 0 26 32">
      <path d="M20.332 17.88c-1.048 2.124-2.468 4.24-3.92 6.14A64 64 0 0 1 12 29.16a64 64 0 0 1-4.412-5.14c-1.452-1.9-2.872-4.016-3.92-6.14C2.608 15.734 2 13.724 2 12a10.001 10.001 0 0 1 20 0c0 1.724-.61 3.734-1.668 5.88M12 32s12-11.372 12-20A12.003 12.003 0 0 0 12 0 12 12 0 0 0 0 12c0 8.628 12 20 12 20"/>
      <path d="M12 16a4.003 4.003 0 0 1-4-4 4.003 4.003 0 0 1 4-4 4.003 4.003 0 0 1 4 4 4.003 4.003 0 0 1-4 4m0 2a5.996 5.996 0 0 0 6-6 5.996 5.996 0 0 0-6-6 5.996 5.996 0 0 0-6 6 5.996 5.996 0 0 0 6 6"/>
    </symbol>
    <symbol id="icon-logo" viewBox="0 0 204 32">
      <path fill="#3470ff" d="M202.142 15.291q-2.049 0-3.744.236c-1.695.236-2.351.473-3.665.946v15.054h-6.857V9.143h5.084l1.025 2.64q2.049-1.655 4.02-2.365c1.971-.71 2.694-.709 4.138-.709v6.581z" style="fill:var(--color2, #3470ff)"/>
      <path fill="#3470ff" d="M184.597 31.291q-1.262.276-2.246.394a18 18 0 0 1-2.246.118q-3.783 0-4.965-2.443-1.655 1.221-3.31 1.852c-1.655.631-2.312.631-3.626.631q-1.773 0-3.192-.749c-1.419-.749-1.681-1.169-2.207-2.01a5.1 5.1 0 0 1-.788-2.759q0-2.523 1.261-3.98 1.3-1.497 3.468-2.365 2.168-.906 6.581-2.167l1.182-.355V17.3q0-3.626-3.31-3.626-1.616 0-3.468.709c-1.852.709-2.653 1.235-4.256 2.286l-1.301-4.729a27.5 27.5 0 0 1 5.438-2.404q2.798-.867 5.911-.867 3.783 0 5.793 2.049 2.049 2.049 2.049 7.015v7.488q0 .867.355 1.261.355.355 1.143.355.748 0 1.497-.197l.237 4.65zm-15.724-5.872q0 .787.394 1.143.434.355 1.34.355 1.655 0 3.901-1.419v-4.177l-.591.197q-2.956 1.064-4.02 1.892-1.025.788-1.025 2.01z" style="fill:var(--color2, #3470ff)"/>
      <path fill="#3470ff" d="M150.364 32q-4.887 0-8.276-1.892-3.389-1.93-5.084-5.084-1.655-3.192-1.655-6.936 0-3.704 1.734-6.857 1.773-3.153 5.241-5.044c3.468-1.891 5.097-1.892 8.355-1.892q4.572 0 8.039 1.773l-1.419 4.966a16 16 0 0 0-3.034-1.182q-1.576-.473-3.586-.473-2.562 0-4.453 1.182-1.853 1.143-2.837 3.153-.946 1.97-.946 4.414 0 3.863 2.049 6.345 2.049 2.443 5.872 2.443 3.271 0 7.054-1.616l1.34 4.847q-1.616.827-3.862 1.34c-2.246.513-3.008.512-4.532.512z" style="fill:var(--color2, #3470ff)"/>
      <path fill="#101828" d="M123.567 0h6.857v31.527h-6.857z" style="fill:var(--color3, #101828)"/>
      <path fill="#101828" d="M120.288 31.291q-1.262.276-2.246.394a18 18 0 0 1-2.246.118q-3.783 0-4.966-2.443-1.655 1.221-3.31 1.852c-1.655.631-2.312.631-3.626.631q-1.773 0-3.192-.749c-1.419-.749-1.682-1.169-2.207-2.01a5.1 5.1 0 0 1-.788-2.759q0-2.523 1.261-3.98 1.3-1.497 3.468-2.365 2.168-.906 6.581-2.167l1.182-.355V17.3q0-3.626-3.31-3.626-1.615 0-3.468.709c-1.853.709-2.654 1.235-4.256 2.286l-1.301-4.729a27.5 27.5 0 0 1 5.439-2.404q2.798-.867 5.911-.867 3.783 0 5.793 2.049 2.049 2.049 2.049 7.015v7.488q0 .867.355 1.261.354.355 1.143.355.748 0 1.498-.197l.236 4.65zm-15.724-5.872q0 .787.394 1.143.434.355 1.34.355 1.655 0 3.901-1.419v-4.177l-.591.197q-2.955 1.064-4.02 1.892-1.025.788-1.025 2.01z" style="fill:var(--color3, #101828)"/>
      <path fill="#101828" d="M95.248 30.069q-1.182.827-2.838 1.301a12.1 12.1 0 0 1-3.153.433q-4.177 0-6.227-1.813-2.049-1.852-2.049-5.281V13.99h-3.35v-2.877l4.217-1.695 1.892-6.03h4.098v5.754h6.305v4.847h-6.305v9.064q0 2.089.67 2.956c.67.867 1.117.867 2.01.867q1.734 0 3.665-1.025z" style="fill:var(--color3, #101828)"/>
      <path fill="#101828" d="M66.38 8.67q4.374 0 6.03 2.325 1.695 2.325 1.695 6.7v13.833h-6.857V18.562q0-2.758-.67-3.823-.63-1.064-2.483-1.064-2.01 0-4.098 1.34v16.512H53.14V9.143h5.084l.709 1.852q3.863-2.325 7.448-2.325z" style="fill:var(--color3, #101828)"/>
      <path fill="#101828" d="M34.057 21.596q.197 2.798 1.379 4.138c1.182 1.34 1.997 1.34 3.626 1.34q1.813 0 3.35-.63 1.576-.67 3.586-1.97l1.852 4.335q-2.089 1.695-4.138 2.443c-2.049.748-2.929.749-4.69.749q-3.902 0-6.542-1.498-2.64-1.537-3.941-4.138-1.261-2.64-1.261-5.99 0-5.32 2.995-8.512c2.995-3.192 4.913-3.192 8.749-3.192q4.572 0 6.936 2.483 2.404 2.444 2.443 6.975a12 12 0 0 1-.512 3.468zm7.684-4.453q.039-.237.039-.631-.039-1.616-.867-2.443-.828-.867-2.286-.867-3.468 0-4.335 3.941z" style="fill:var(--color3, #101828)"/>
      <path fill="#101828" d="M10.877 21.675H7.094v9.852H0V4.729h10.719q5.754 0 8.394 1.97 2.64 1.931 2.64 6.108 0 5.439-3.98 7.291L25.3 31.527h-8.197zm-3.783-4.926h3.626q2.088 0 2.995-.867.946-.867.946-2.68 0-1.891-.906-2.719c-.906-.828-1.616-.828-3.034-.828H7.095v7.094z" style="fill:var(--color3, #101828)"/>
    </symbol>
  </defs>
</svg>
